<?xml version="1.0" encoding="UTF-8" standalone="no"?>
<!DOCTYPE svg PUBLIC "-//W3C//DTD SVG 1.1//EN"
 "http://www.w3.org/Graphics/SVG/1.1/DTD/svg11.dtd">
<!-- Generated by graphviz version 2.43.0 (0)
 -->
<!-- Title: gr&#45;0003 Pages: 1 -->
<svg width="1276pt" height="747pt"
 viewBox="0.00 0.00 1276.33 747.00" xmlns="http://www.w3.org/2000/svg" xmlns:xlink="http://www.w3.org/1999/xlink">
<g id="graph0" class="graph" transform="scale(1 1) rotate(0) translate(4 743)">
<title>gr&#45;0003</title>
<polygon fill="white" stroke="transparent" points="-4,4 -4,-743 1272.33,-743 1272.33,4 -4,4"/>
<!-- control_input -->
<g id="node1" class="node">
<title>control_input</title>
<ellipse fill="none" stroke="blue" stroke-width="2" cx="39.08" cy="-236" rx="39.15" ry="18"/>
<text text-anchor="middle" x="39.08" y="-233.2" font-family="sans" font-size="11.00">control_input</text>
</g>
<!-- loopback_input -->
<g id="node2" class="node">
<title>loopback_input</title>
<ellipse fill="none" stroke="black" cx="158.65" cy="-371" rx="44.51" ry="18"/>
<text text-anchor="middle" x="158.65" y="-368.2" font-family="sans" font-size="11.00">loopback_input</text>
</g>
<!-- control_input&#45;&gt;loopback_input -->
<g id="edge1" class="edge">
<title>control_input&#45;&gt;loopback_input</title>
<path fill="none" stroke="blue" stroke-width="2" d="M54.49,-252.55C74.92,-276.01 112.44,-319.08 136.16,-346.32"/>
<polygon fill="blue" stroke="blue" stroke-width="2" points="133.54,-348.64 142.75,-353.89 138.82,-344.05 133.54,-348.64"/>
</g>
<!-- arp_output_request -->
<g id="node3" class="node">
<title>arp_output_request</title>
<ellipse fill="none" stroke="black" cx="295.6" cy="-154" rx="56.39" ry="18"/>
<text text-anchor="middle" x="295.6" y="-151.2" font-family="sans" font-size="11.00">arp_output_request</text>
</g>
<!-- control_input&#45;&gt;arp_output_request -->
<g id="edge2" class="edge">
<title>control_input&#45;&gt;arp_output_request</title>
<path fill="none" stroke="blue" stroke-width="2" d="M71.54,-225.86C115.15,-211.81 194.38,-186.29 245.72,-169.75"/>
<polygon fill="blue" stroke="blue" stroke-width="2" points="246.84,-173.06 255.29,-166.67 244.69,-166.4 246.84,-173.06"/>
</g>
<!-- icmp_local_send -->
<g id="node4" class="node">
<title>icmp_local_send</title>
<ellipse fill="none" stroke="black" cx="435.26" cy="-632" rx="47.43" ry="18"/>
<text text-anchor="middle" x="435.26" y="-629.2" font-family="sans" font-size="11.00">icmp_local_send</text>
</g>
<!-- control_input&#45;&gt;icmp_local_send -->
<g id="edge3" class="edge">
<title>control_input&#45;&gt;icmp_local_send</title>
<path fill="none" stroke="blue" stroke-width="2" d="M46.05,-253.91C65,-307.88 129.08,-470.21 239.16,-552 283.77,-585.15 344.09,-607.12 385.8,-619.51"/>
<polygon fill="blue" stroke="blue" stroke-width="2" points="384.87,-622.88 395.45,-622.3 386.82,-616.16 384.87,-622.88"/>
</g>
<!-- icmp6_local_send -->
<g id="node5" class="node">
<title>icmp6_local_send</title>
<ellipse fill="none" stroke="black" cx="568.95" cy="-62" rx="50.45" ry="18"/>
<text text-anchor="middle" x="568.95" y="-59.2" font-family="sans" font-size="11.00">icmp6_local_send</text>
</g>
<!-- control_input&#45;&gt;icmp6_local_send -->
<g id="edge4" class="edge">
<title>control_input&#45;&gt;icmp6_local_send</title>
<path fill="none" stroke="blue" stroke-width="2" d="M43.61,-217.83C50.77,-186.48 70.2,-122.81 114.15,-94 238.66,-12.39 425.83,-33.61 515.89,-50.48"/>
<polygon fill="blue" stroke="blue" stroke-width="2" points="515.38,-53.94 525.86,-52.4 516.7,-47.07 515.38,-53.94"/>
</g>
<!-- ndp_ns_output -->
<g id="node6" class="node">
<title>ndp_ns_output</title>
<ellipse fill="none" stroke="black" cx="698.84" cy="-108" rx="43.34" ry="18"/>
<text text-anchor="middle" x="698.84" y="-105.2" font-family="sans" font-size="11.00">ndp_ns_output</text>
</g>
<!-- control_input&#45;&gt;ndp_ns_output -->
<g id="edge5" class="edge">
<title>control_input&#45;&gt;ndp_ns_output</title>
<path fill="none" stroke="blue" stroke-width="2" d="M57.38,-220.05C96.47,-185.73 195.93,-108 294.6,-108 294.6,-108 294.6,-108 436.26,-108 508.64,-108 592.28,-108 645.11,-108"/>
<polygon fill="blue" stroke="blue" stroke-width="2" points="645.25,-111.5 655.25,-108 645.25,-104.5 645.25,-111.5"/>
</g>
<!-- ip_output -->
<g id="node7" class="node">
<title>ip_output</title>
<ellipse fill="none" stroke="black" cx="817.88" cy="-586" rx="28.44" ry="18"/>
<text text-anchor="middle" x="817.88" y="-583.2" font-family="sans" font-size="11.00">ip_output</text>
</g>
<!-- control_input&#45;&gt;ip_output -->
<g id="edge6" class="edge">
<title>control_input&#45;&gt;ip_output</title>
<path fill="none" stroke="blue" stroke-width="2" d="M42.49,-254.08C48.71,-295.78 68.12,-400.8 114.15,-475 154.59,-540.18 175.26,-551.57 239.16,-594 299.31,-633.94 317.36,-644.24 388.04,-659 542.15,-691.17 596.49,-718.45 742.26,-659 766.2,-649.24 786.63,-627.69 800.03,-610.52"/>
<polygon fill="blue" stroke="blue" stroke-width="2" points="802.83,-612.61 806.02,-602.51 797.23,-608.42 802.83,-612.61"/>
</g>
<!-- arp_output_reply -->
<g id="node8" class="node">
<title>arp_output_reply</title>
<ellipse fill="none" stroke="black" cx="295.6" cy="-208" rx="48.69" ry="18"/>
<text text-anchor="middle" x="295.6" y="-205.2" font-family="sans" font-size="11.00">arp_output_reply</text>
</g>
<!-- control_input&#45;&gt;arp_output_reply -->
<g id="edge7" class="edge">
<title>control_input&#45;&gt;arp_output_reply</title>
<path fill="none" stroke="blue" stroke-width="2" d="M77.36,-231.9C119.77,-227.23 189.48,-219.56 238.47,-214.17"/>
<polygon fill="blue" stroke="blue" stroke-width="2" points="239.03,-217.63 248.59,-213.06 238.27,-210.68 239.03,-217.63"/>
</g>
<!-- ip6_output -->
<g id="node9" class="node">
<title>ip6_output</title>
<ellipse fill="none" stroke="black" cx="568.95" cy="-352" rx="31.46" ry="18"/>
<text text-anchor="middle" x="568.95" y="-349.2" font-family="sans" font-size="11.00">ip6_output</text>
</g>
<!-- control_input&#45;&gt;ip6_output -->
<g id="edge8" class="edge">
<title>control_input&#45;&gt;ip6_output</title>
<path fill="none" stroke="blue" stroke-width="2" d="M77.19,-240.49C174.33,-257.72 435.15,-315.04 531.52,-340.36"/>
<polygon fill="blue" stroke="blue" stroke-width="2" points="530.81,-343.79 541.38,-342.99 532.62,-337.03 530.81,-343.79"/>
</g>
<!-- control_input&#45;&gt;ip6_output -->
<g id="edge10" class="edge">
<title>control_input&#45;&gt;ip6_output</title>
<path fill="none" stroke="blue" stroke-width="2" d="M71.52,-246.32C162.52,-270.63 426.1,-328.69 527.52,-346.92"/>
<polygon fill="blue" stroke="blue" stroke-width="2" points="527.21,-350.42 537.66,-348.7 528.42,-343.52 527.21,-350.42"/>
</g>
<!-- ndp_na_output -->
<g id="node10" class="node">
<title>ndp_na_output</title>
<ellipse fill="none" stroke="black" cx="158.65" cy="-18" rx="43.92" ry="18"/>
<text text-anchor="middle" x="158.65" y="-15.2" font-family="sans" font-size="11.00">ndp_na_output</text>
</g>
<!-- control_input&#45;&gt;ndp_na_output -->
<g id="edge9" class="edge">
<title>control_input&#45;&gt;ndp_na_output</title>
<path fill="none" stroke="blue" stroke-width="2" d="M44.25,-218C52.88,-183.57 75.2,-107.08 114.15,-54 117.79,-49.04 122.26,-44.34 126.94,-40.09"/>
<polygon fill="blue" stroke="blue" stroke-width="2" points="129.52,-42.49 134.89,-33.36 125,-37.15 129.52,-42.49"/>
</g>
<!-- ip_input -->
<g id="node14" class="node">
<title>ip_input</title>
<ellipse fill="none" stroke="black" cx="295.6" cy="-525" rx="27" ry="18"/>
<text text-anchor="middle" x="295.6" y="-522.2" font-family="sans" font-size="11.00">ip_input</text>
</g>
<!-- loopback_input&#45;&gt;ip_input -->
<g id="edge15" class="edge">
<title>loopback_input&#45;&gt;ip_input</title>
<path fill="none" stroke="black" d="M174.61,-388.07C198.93,-415.82 247.06,-470.74 274.39,-501.94"/>
<polygon fill="black" stroke="black" points="271.97,-504.48 281.19,-509.7 277.23,-499.87 271.97,-504.48"/>
</g>
<!-- ip6_input -->
<g id="node15" class="node">
<title>ip6_input</title>
<ellipse fill="none" stroke="black" cx="295.6" cy="-371" rx="27.86" ry="18"/>
<text text-anchor="middle" x="295.6" y="-368.2" font-family="sans" font-size="11.00">ip6_input</text>
</g>
<!-- loopback_input&#45;&gt;ip6_input -->
<g id="edge16" class="edge">
<title>loopback_input&#45;&gt;ip6_input</title>
<path fill="none" stroke="black" d="M203.47,-371C220.89,-371 240.73,-371 257.43,-371"/>
<polygon fill="black" stroke="black" points="257.9,-374.5 267.9,-371 257.9,-367.5 257.9,-374.5"/>
</g>
<!-- eth_output -->
<g id="node16" class="node">
<title>eth_output</title>
<ellipse fill="none" stroke="black" cx="949.94" cy="-319" rx="32.04" ry="18"/>
<text text-anchor="middle" x="949.94" y="-316.2" font-family="sans" font-size="11.00">eth_output</text>
</g>
<!-- arp_output_request&#45;&gt;eth_output -->
<g id="edge24" class="edge">
<title>arp_output_request&#45;&gt;eth_output</title>
<path fill="none" stroke="black" d="M351.7,-156.63C454.74,-163.18 682.04,-185.34 857.5,-258 881.44,-267.91 905.7,-284.47 923.22,-297.84"/>
<polygon fill="black" stroke="black" points="921.21,-300.71 931.24,-304.1 925.51,-295.19 921.21,-300.71"/>
</g>
<!-- icmp_output -->
<g id="node23" class="node">
<title>icmp_output</title>
<ellipse fill="none" stroke="black" cx="698.84" cy="-632" rx="36.81" ry="18"/>
<text text-anchor="middle" x="698.84" y="-629.2" font-family="sans" font-size="11.00">icmp_output</text>
</g>
<!-- icmp_local_send&#45;&gt;icmp_output -->
<g id="edge27" class="edge">
<title>icmp_local_send&#45;&gt;icmp_output</title>
<path fill="none" stroke="black" d="M482.72,-632C530.46,-632 604.32,-632 651.87,-632"/>
<polygon fill="black" stroke="black" points="651.89,-635.5 661.89,-632 651.89,-628.5 651.89,-635.5"/>
</g>
<!-- icmp6_output -->
<g id="node31" class="node">
<title>icmp6_output</title>
<ellipse fill="none" stroke="black" cx="949.94" cy="-104" rx="40.32" ry="18"/>
<text text-anchor="middle" x="949.94" y="-101.2" font-family="sans" font-size="11.00">icmp6_output</text>
</g>
<!-- icmp6_local_send&#45;&gt;icmp6_output -->
<g id="edge47" class="edge">
<title>icmp6_local_send&#45;&gt;icmp6_output</title>
<path fill="none" stroke="black" d="M617.49,-67.23C652.09,-71.04 700.08,-76.33 742.26,-81 796.51,-87.01 858.77,-93.94 900.65,-98.61"/>
<polygon fill="black" stroke="black" points="900.52,-102.12 910.85,-99.75 901.3,-95.16 900.52,-102.12"/>
</g>
<!-- ndp_ns_output&#45;&gt;icmp6_output -->
<g id="edge62" class="edge">
<title>ndp_ns_output&#45;&gt;icmp6_output</title>
<path fill="none" stroke="black" d="M742.38,-107.32C785.91,-106.62 853.52,-105.53 899.43,-104.8"/>
<polygon fill="black" stroke="black" points="899.51,-108.29 909.45,-104.63 899.4,-101.3 899.51,-108.29"/>
</g>
<!-- ip_output&#45;&gt;eth_output -->
<g id="edge37" class="edge">
<title>ip_output&#45;&gt;eth_output</title>
<path fill="none" stroke="black" d="M826.29,-568.79C834.29,-550.03 847.26,-519.06 857.5,-492 874.8,-446.25 869.83,-430.81 893.5,-388 902.58,-371.56 915.63,-355.09 926.79,-342.37"/>
<polygon fill="black" stroke="black" points="929.7,-344.36 933.78,-334.58 924.5,-339.68 929.7,-344.36"/>
</g>
<!-- loopback_output -->
<g id="node18" class="node">
<title>loopback_output</title>
<ellipse fill="none" stroke="black" cx="1094.48" cy="-416" rx="48.69" ry="18"/>
<text text-anchor="middle" x="1094.48" y="-413.2" font-family="sans" font-size="11.00">loopback_output</text>
</g>
<!-- ip_output&#45;&gt;loopback_output -->
<g id="edge39" class="edge">
<title>ip_output&#45;&gt;loopback_output</title>
<path fill="none" stroke="black" d="M838.63,-573.77C885.09,-545.01 1001.74,-472.8 1059.7,-436.91"/>
<polygon fill="black" stroke="black" points="1061.82,-439.72 1068.48,-431.48 1058.14,-433.76 1061.82,-439.72"/>
</g>
<!-- ip_hold -->
<g id="node25" class="node">
<title>ip_hold</title>
<ellipse fill="none" stroke="black" cx="949.94" cy="-640" rx="27" ry="18"/>
<text text-anchor="middle" x="949.94" y="-637.2" font-family="sans" font-size="11.00">ip_hold</text>
</g>
<!-- ip_output&#45;&gt;ip_hold -->
<g id="edge38" class="edge">
<title>ip_output&#45;&gt;ip_hold</title>
<path fill="none" stroke="black" d="M841.83,-595.53C862.76,-604.22 893.88,-617.14 917.19,-626.82"/>
<polygon fill="black" stroke="black" points="916.07,-630.14 926.65,-630.75 918.76,-623.68 916.07,-630.14"/>
</g>
<!-- ipip_output -->
<g id="node29" class="node">
<title>ipip_output</title>
<ellipse fill="none" stroke="black" cx="949.94" cy="-586" rx="33.8" ry="18"/>
<text text-anchor="middle" x="949.94" y="-583.2" font-family="sans" font-size="11.00">ipip_output</text>
</g>
<!-- ip_output&#45;&gt;ipip_output -->
<g id="edge40" class="edge">
<title>ip_output&#45;&gt;ipip_output</title>
<path fill="none" stroke="black" d="M844.88,-580.47C862.89,-579.18 887.24,-578.91 907.86,-579.67"/>
<polygon fill="black" stroke="black" points="907.78,-583.17 917.94,-580.15 908.11,-576.18 907.78,-583.17"/>
</g>
<!-- arp_output_reply&#45;&gt;eth_output -->
<g id="edge23" class="edge">
<title>arp_output_reply&#45;&gt;eth_output</title>
<path fill="none" stroke="black" d="M344.24,-209.76C426.3,-213.5 599.24,-224.45 742.26,-254 803.68,-266.69 872.78,-290.43 913.49,-305.44"/>
<polygon fill="black" stroke="black" points="912.37,-308.75 922.96,-308.96 914.81,-302.19 912.37,-308.75"/>
</g>
<!-- ip6_output&#45;&gt;eth_output -->
<g id="edge55" class="edge">
<title>ip6_output&#45;&gt;eth_output</title>
<path fill="none" stroke="black" d="M600.32,-349.36C668.01,-343.46 831.31,-329.24 907.94,-322.57"/>
<polygon fill="black" stroke="black" points="908.5,-326.03 918.16,-321.68 907.89,-319.06 908.5,-326.03"/>
</g>
<!-- ip6_output&#45;&gt;loopback_output -->
<g id="edge58" class="edge">
<title>ip6_output&#45;&gt;loopback_output</title>
<path fill="none" stroke="black" d="M600.44,-352.13C672.02,-352.95 856.14,-358.07 1006.38,-388 1020.8,-390.87 1036.17,-395.33 1049.93,-399.84"/>
<polygon fill="black" stroke="black" points="1049.03,-403.23 1059.62,-403.12 1051.27,-396.6 1049.03,-403.23"/>
</g>
<!-- ip6_hold -->
<g id="node36" class="node">
<title>ip6_hold</title>
<ellipse fill="none" stroke="black" cx="817.88" cy="-465" rx="27" ry="18"/>
<text text-anchor="middle" x="817.88" y="-462.2" font-family="sans" font-size="11.00">ip6_hold</text>
</g>
<!-- ip6_output&#45;&gt;ip6_hold -->
<g id="edge56" class="edge">
<title>ip6_output&#45;&gt;ip6_hold</title>
<path fill="none" stroke="black" d="M594.08,-363.04C639.13,-383.66 735.99,-427.98 785.84,-450.79"/>
<polygon fill="black" stroke="black" points="784.6,-454.08 795.15,-455.06 787.51,-447.71 784.6,-454.08"/>
</g>
<!-- ip6_input_local -->
<g id="node37" class="node">
<title>ip6_input_local</title>
<ellipse fill="none" stroke="black" cx="698.84" cy="-281" rx="43.34" ry="18"/>
<text text-anchor="middle" x="698.84" y="-278.2" font-family="sans" font-size="11.00">ip6_input_local</text>
</g>
<!-- ip6_output&#45;&gt;ip6_input_local -->
<g id="edge57" class="edge">
<title>ip6_output&#45;&gt;ip6_input_local</title>
<path fill="none" stroke="black" d="M592.23,-339.63C611.73,-328.81 640.38,-312.9 662.92,-300.38"/>
<polygon fill="black" stroke="black" points="664.81,-303.34 671.85,-295.43 661.41,-297.22 664.81,-303.34"/>
</g>
<!-- ndp_na_output&#45;&gt;icmp6_output -->
<g id="edge60" class="edge">
<title>ndp_na_output&#45;&gt;icmp6_output</title>
<path fill="none" stroke="black" d="M202.93,-17.49C257.04,-16.9 352.5,-16 434.26,-16 434.26,-16 434.26,-16 699.84,-16 781.58,-16 870.24,-58.65 916.57,-84.57"/>
<polygon fill="black" stroke="black" points="915.1,-87.76 925.52,-89.67 918.56,-81.68 915.1,-87.76"/>
</g>
<!-- control_output -->
<g id="node11" class="node">
<title>control_output</title>
<ellipse fill="none" stroke="black" cx="1225.46" cy="-440" rx="42.75" ry="18"/>
<text text-anchor="middle" x="1225.46" y="-437.2" font-family="sans" font-size="11.00">control_output</text>
</g>
<!-- eth_input -->
<g id="node12" class="node">
<title>eth_input</title>
<ellipse fill="none" stroke="black" cx="158.65" cy="-721" rx="27.86" ry="18"/>
<text text-anchor="middle" x="158.65" y="-718.2" font-family="sans" font-size="11.00">eth_input</text>
</g>
<!-- arp_input -->
<g id="node13" class="node">
<title>arp_input</title>
<ellipse fill="none" stroke="black" cx="949.94" cy="-694" rx="28.44" ry="18"/>
<text text-anchor="middle" x="949.94" y="-691.2" font-family="sans" font-size="11.00">arp_input</text>
</g>
<!-- eth_input&#45;&gt;arp_input -->
<g id="edge11" class="edge">
<title>eth_input&#45;&gt;arp_input</title>
<path fill="none" stroke="black" d="M186.55,-720.84C235.72,-720.55 343.44,-720 434.26,-720 434.26,-720 434.26,-720 699.84,-720 775.79,-720 864.08,-707.89 912.5,-700.2"/>
<polygon fill="black" stroke="black" points="913.18,-703.64 922.49,-698.59 912.06,-696.73 913.18,-703.64"/>
</g>
<!-- eth_input&#45;&gt;ip_input -->
<g id="edge12" class="edge">
<title>eth_input&#45;&gt;ip_input</title>
<path fill="none" stroke="black" d="M170.93,-704.63C194.65,-670.17 249.84,-590.01 277.77,-549.45"/>
<polygon fill="black" stroke="black" points="280.67,-551.41 283.45,-541.19 274.9,-547.44 280.67,-551.41"/>
</g>
<!-- eth_input&#45;&gt;ip6_input -->
<g id="edge13" class="edge">
<title>eth_input&#45;&gt;ip6_input</title>
<path fill="none" stroke="black" d="M165.43,-703.5C178.02,-665.69 209.2,-573.67 239.16,-498 253.08,-462.85 270.8,-423 282.41,-397.46"/>
<polygon fill="black" stroke="black" points="285.72,-398.65 286.69,-388.1 279.35,-395.74 285.72,-398.65"/>
</g>
<!-- arp_input_request -->
<g id="node20" class="node">
<title>arp_input_request</title>
<ellipse fill="none" stroke="black" cx="1094.48" cy="-626" rx="52.2" ry="18"/>
<text text-anchor="middle" x="1094.48" y="-623.2" font-family="sans" font-size="11.00">arp_input_request</text>
</g>
<!-- arp_input&#45;&gt;arp_input_request -->
<g id="edge19" class="edge">
<title>arp_input&#45;&gt;arp_input_request</title>
<path fill="none" stroke="black" d="M972.9,-683.52C994.39,-673.27 1027.62,-657.42 1053.75,-644.95"/>
<polygon fill="black" stroke="black" points="1055.51,-647.99 1063.03,-640.53 1052.49,-641.68 1055.51,-647.99"/>
</g>
<!-- arp_input_reply -->
<g id="node21" class="node">
<title>arp_input_reply</title>
<ellipse fill="none" stroke="black" cx="1094.48" cy="-687" rx="45.09" ry="18"/>
<text text-anchor="middle" x="1094.48" y="-684.2" font-family="sans" font-size="11.00">arp_input_reply</text>
</g>
<!-- arp_input&#45;&gt;arp_input_reply -->
<g id="edge20" class="edge">
<title>arp_input&#45;&gt;arp_input_reply</title>
<path fill="none" stroke="black" d="M978.09,-692.67C995.44,-691.81 1018.55,-690.68 1039.53,-689.65"/>
<polygon fill="black" stroke="black" points="1039.8,-693.14 1049.62,-689.15 1039.46,-686.15 1039.8,-693.14"/>
</g>
<!-- ip_input&#45;&gt;ip_output -->
<g id="edge32" class="edge">
<title>ip_input&#45;&gt;ip_output</title>
<path fill="none" stroke="black" d="M320.94,-531.39C339.3,-536.08 365.15,-542.41 388.04,-547 445.61,-558.54 460.11,-561.56 518.48,-568 612.01,-578.32 722.74,-583.05 779.39,-584.93"/>
<polygon fill="black" stroke="black" points="779.54,-588.44 789.65,-585.26 779.76,-581.44 779.54,-588.44"/>
</g>
<!-- ip_forward -->
<g id="node24" class="node">
<title>ip_forward</title>
<ellipse fill="none" stroke="black" cx="435.26" cy="-448" rx="32.04" ry="18"/>
<text text-anchor="middle" x="435.26" y="-445.2" font-family="sans" font-size="11.00">ip_forward</text>
</g>
<!-- ip_input&#45;&gt;ip_forward -->
<g id="edge31" class="edge">
<title>ip_input&#45;&gt;ip_forward</title>
<path fill="none" stroke="black" d="M316.91,-513.64C339.66,-500.92 376.79,-480.15 403.19,-465.38"/>
<polygon fill="black" stroke="black" points="405.02,-468.37 412.04,-460.43 401.6,-462.26 405.02,-468.37"/>
</g>
<!-- ip_input_local -->
<g id="node26" class="node">
<title>ip_input_local</title>
<ellipse fill="none" stroke="black" cx="435.26" cy="-502" rx="40.32" ry="18"/>
<text text-anchor="middle" x="435.26" y="-499.2" font-family="sans" font-size="11.00">ip_input_local</text>
</g>
<!-- ip_input&#45;&gt;ip_input_local -->
<g id="edge33" class="edge">
<title>ip_input&#45;&gt;ip_input_local</title>
<path fill="none" stroke="black" d="M321.85,-520.78C340.14,-517.73 365.41,-513.5 387.36,-509.84"/>
<polygon fill="black" stroke="black" points="388.21,-513.24 397.5,-508.14 387.06,-506.34 388.21,-513.24"/>
</g>
<!-- ip6_input&#45;&gt;ip6_output -->
<g id="edge51" class="edge">
<title>ip6_input&#45;&gt;ip6_output</title>
<path fill="none" stroke="black" d="M323.61,-369.11C371.34,-365.77 470.85,-358.8 527.04,-354.86"/>
<polygon fill="black" stroke="black" points="527.61,-358.33 537.34,-354.14 527.12,-351.35 527.61,-358.33"/>
</g>
<!-- ip6_forward -->
<g id="node35" class="node">
<title>ip6_forward</title>
<ellipse fill="none" stroke="black" cx="435.26" cy="-394" rx="35.06" ry="18"/>
<text text-anchor="middle" x="435.26" y="-391.2" font-family="sans" font-size="11.00">ip6_forward</text>
</g>
<!-- ip6_input&#45;&gt;ip6_forward -->
<g id="edge50" class="edge">
<title>ip6_input&#45;&gt;ip6_forward</title>
<path fill="none" stroke="black" d="M322.49,-375.33C341.88,-378.56 368.83,-383.07 391.4,-386.84"/>
<polygon fill="black" stroke="black" points="390.99,-390.32 401.43,-388.51 392.14,-383.41 390.99,-390.32"/>
</g>
<!-- ip6_input&#45;&gt;ip6_input_local -->
<g id="edge52" class="edge">
<title>ip6_input&#45;&gt;ip6_input_local</title>
<path fill="none" stroke="black" d="M322,-365.3C387.81,-350.54 564.61,-310.88 650.16,-291.69"/>
<polygon fill="black" stroke="black" points="651.14,-295.06 660.13,-289.46 649.61,-288.23 651.14,-295.06"/>
</g>
<!-- port_tx -->
<g id="node17" class="node">
<title>port_tx</title>
<ellipse fill="none" stroke="black" cx="1094.48" cy="-351" rx="27" ry="18"/>
<text text-anchor="middle" x="1094.48" y="-348.2" font-family="sans" font-size="11.00">port_tx</text>
</g>
<!-- eth_output&#45;&gt;port_tx -->
<g id="edge14" class="edge">
<title>eth_output&#45;&gt;port_tx</title>
<path fill="none" stroke="black" d="M980.13,-325.55C1002.93,-330.67 1034.7,-337.8 1058.8,-343.21"/>
<polygon fill="black" stroke="black" points="1058.09,-346.64 1068.61,-345.42 1059.62,-339.81 1058.09,-346.64"/>
</g>
<!-- loopback_output&#45;&gt;control_output -->
<g id="edge17" class="edge">
<title>loopback_output&#45;&gt;control_output</title>
<path fill="none" stroke="black" d="M1138.43,-423.99C1150.45,-426.23 1163.6,-428.68 1175.92,-430.97"/>
<polygon fill="black" stroke="black" points="1175.57,-434.46 1186.04,-432.85 1176.85,-427.58 1175.57,-434.46"/>
</g>
<!-- port_rx -->
<g id="node19" class="node">
<title>port_rx</title>
<ellipse fill="none" stroke="blue" stroke-width="2" cx="39.08" cy="-721" rx="27" ry="18"/>
<text text-anchor="middle" x="39.08" y="-718.2" font-family="sans" font-size="11.00">port_rx</text>
</g>
<!-- port_rx&#45;&gt;eth_input -->
<g id="edge18" class="edge">
<title>port_rx&#45;&gt;eth_input</title>
<path fill="none" stroke="blue" stroke-width="2" d="M66.17,-721C82.23,-721 103.07,-721 120.8,-721"/>
<polygon fill="blue" stroke="blue" stroke-width="2" points="120.82,-724.5 130.82,-721 120.82,-717.5 120.82,-724.5"/>
</g>
<!-- arp_input_request&#45;&gt;control_output -->
<g id="edge22" class="edge">
<title>arp_input_request&#45;&gt;control_output</title>
<path fill="none" stroke="black" d="M1117.16,-609.73C1126.89,-601.76 1138.07,-591.6 1146.58,-581 1175.53,-544.96 1199.57,-496.67 1212.96,-466.98"/>
<polygon fill="black" stroke="black" points="1216.24,-468.23 1217.09,-457.67 1209.84,-465.39 1216.24,-468.23"/>
</g>
<!-- arp_input_reply&#45;&gt;control_output -->
<g id="edge21" class="edge">
<title>arp_input_reply&#45;&gt;control_output</title>
<path fill="none" stroke="black" d="M1123.26,-673.01C1131.67,-667.69 1140.32,-660.95 1146.58,-653 1191.26,-596.28 1211.89,-511.52 1220,-468"/>
<polygon fill="black" stroke="black" points="1223.45,-468.58 1221.76,-458.12 1216.56,-467.35 1223.45,-468.58"/>
</g>
<!-- icmp_input -->
<g id="node22" class="node">
<title>icmp_input</title>
<ellipse fill="none" stroke="black" cx="568.95" cy="-487" rx="32.63" ry="18"/>
<text text-anchor="middle" x="568.95" y="-484.2" font-family="sans" font-size="11.00">icmp_input</text>
</g>
<!-- icmp_input&#45;&gt;control_output -->
<g id="edge26" class="edge">
<title>icmp_input&#45;&gt;control_output</title>
<path fill="none" stroke="black" d="M601.71,-488C642.55,-489.23 715.68,-491.25 778.26,-492 942.53,-493.97 985.11,-491.24 1146.58,-461 1157.65,-458.93 1169.44,-456.09 1180.42,-453.16"/>
<polygon fill="black" stroke="black" points="1181.5,-456.49 1190.22,-450.48 1179.65,-449.74 1181.5,-456.49"/>
</g>
<!-- icmp_input&#45;&gt;icmp_output -->
<g id="edge25" class="edge">
<title>icmp_input&#45;&gt;icmp_output</title>
<path fill="none" stroke="black" d="M595.15,-497.75C603.45,-502.05 612.35,-507.52 619.42,-514 648.2,-540.38 671.44,-579.41 684.94,-605.26"/>
<polygon fill="black" stroke="black" points="681.98,-607.15 689.63,-614.47 688.21,-603.97 681.98,-607.15"/>
</g>
<!-- icmp_output&#45;&gt;ip_output -->
<g id="edge28" class="edge">
<title>icmp_output&#45;&gt;ip_output</title>
<path fill="none" stroke="black" d="M728.17,-620.86C745.07,-614.22 766.59,-605.77 784.2,-598.84"/>
<polygon fill="black" stroke="black" points="785.5,-602.09 793.53,-595.18 782.94,-595.58 785.5,-602.09"/>
</g>
<!-- ip_forward&#45;&gt;ip_output -->
<g id="edge29" class="edge">
<title>ip_forward&#45;&gt;ip_output</title>
<path fill="none" stroke="black" d="M467.28,-445.42C504.44,-443.37 568.09,-443.18 619.42,-460 688.47,-482.63 757.32,-535.05 792.61,-564.65"/>
<polygon fill="black" stroke="black" points="790.55,-567.49 800.44,-571.3 795.09,-562.16 790.55,-567.49"/>
</g>
<!-- ip_hold&#45;&gt;control_output -->
<g id="edge30" class="edge">
<title>ip_hold&#45;&gt;control_output</title>
<path fill="none" stroke="black" d="M972.93,-630.23C983.27,-625.4 995.66,-619.27 1006.38,-613 1071.79,-574.75 1088.11,-564.19 1146.58,-516 1166.08,-499.94 1186.45,-479.92 1201.46,-464.47"/>
<polygon fill="black" stroke="black" points="1204.39,-466.48 1208.8,-456.84 1199.34,-461.63 1204.39,-466.48"/>
</g>
<!-- ip_input_local&#45;&gt;icmp_input -->
<g id="edge34" class="edge">
<title>ip_input_local&#45;&gt;icmp_input</title>
<path fill="none" stroke="black" d="M474.35,-497.66C490.71,-495.8 509.86,-493.62 526.56,-491.71"/>
<polygon fill="black" stroke="black" points="527.06,-495.18 536.6,-490.57 526.27,-488.23 527.06,-495.18"/>
</g>
<!-- ipip_input -->
<g id="node27" class="node">
<title>ipip_input</title>
<ellipse fill="none" stroke="black" cx="568.95" cy="-541" rx="29.12" ry="18"/>
<text text-anchor="middle" x="568.95" y="-538.2" font-family="sans" font-size="11.00">ipip_input</text>
</g>
<!-- ip_input_local&#45;&gt;ipip_input -->
<g id="edge35" class="edge">
<title>ip_input_local&#45;&gt;ipip_input</title>
<path fill="none" stroke="black" d="M469.15,-511.74C488.35,-517.43 512.6,-524.61 532.26,-530.43"/>
<polygon fill="black" stroke="black" points="531.49,-533.85 542.07,-533.34 533.48,-527.14 531.49,-533.85"/>
</g>
<!-- l4_input_local -->
<g id="node28" class="node">
<title>l4_input_local</title>
<ellipse fill="none" stroke="black" cx="817.88" cy="-411" rx="39.74" ry="18"/>
<text text-anchor="middle" x="817.88" y="-408.2" font-family="sans" font-size="11.00">l4_input_local</text>
</g>
<!-- ip_input_local&#45;&gt;l4_input_local -->
<g id="edge36" class="edge">
<title>ip_input_local&#45;&gt;l4_input_local</title>
<path fill="none" stroke="black" d="M459.87,-487.45C475.86,-478.23 497.77,-466.81 518.48,-460 603.64,-432.01 707.95,-419.56 767.97,-414.37"/>
<polygon fill="black" stroke="black" points="768.62,-417.83 778.29,-413.51 768.04,-410.85 768.62,-417.83"/>
</g>
<!-- ipip_input&#45;&gt;ip_input -->
<g id="edge64" class="edge">
<title>ipip_input&#45;&gt;ip_input</title>
<path fill="none" stroke="black" d="M539.58,-539.33C489.98,-536.4 387.58,-530.36 332.89,-527.14"/>
<polygon fill="black" stroke="black" points="332.81,-523.63 322.62,-526.53 332.4,-530.62 332.81,-523.63"/>
</g>
<!-- l4_loopback_output -->
<g id="node38" class="node">
<title>l4_loopback_output</title>
<ellipse fill="none" stroke="black" cx="949.94" cy="-415" rx="56.39" ry="18"/>
<text text-anchor="middle" x="949.94" y="-412.2" font-family="sans" font-size="11.00">l4_loopback_output</text>
</g>
<!-- l4_input_local&#45;&gt;l4_loopback_output -->
<g id="edge66" class="edge">
<title>l4_input_local&#45;&gt;l4_loopback_output</title>
<path fill="none" stroke="black" d="M857.55,-412.19C865.62,-412.44 874.35,-412.71 883.09,-412.97"/>
<polygon fill="black" stroke="black" points="883.23,-416.48 893.33,-413.29 883.44,-409.48 883.23,-416.48"/>
</g>
<!-- ipip_output&#45;&gt;ip_output -->
<g id="edge65" class="edge">
<title>ipip_output&#45;&gt;ip_output</title>
<path fill="none" stroke="black" d="M917.94,-591.85C899.05,-592.95 874.82,-593.04 855.05,-592.12"/>
<polygon fill="black" stroke="black" points="855.07,-588.62 844.88,-591.53 854.66,-595.6 855.07,-588.62"/>
</g>
<!-- icmp6_input -->
<g id="node30" class="node">
<title>icmp6_input</title>
<ellipse fill="none" stroke="black" cx="817.88" cy="-188" rx="35.64" ry="18"/>
<text text-anchor="middle" x="817.88" y="-185.2" font-family="sans" font-size="11.00">icmp6_input</text>
</g>
<!-- icmp6_input&#45;&gt;control_output -->
<g id="edge45" class="edge">
<title>icmp6_input&#45;&gt;control_output</title>
<path fill="none" stroke="black" d="M853.71,-186.36C928.59,-183.55 1101.73,-181.13 1146.58,-216 1207.93,-263.69 1221.15,-362.8 1223.86,-411.6"/>
<polygon fill="black" stroke="black" points="1220.37,-411.93 1224.31,-421.77 1227.37,-411.62 1220.37,-411.93"/>
</g>
<!-- icmp6_input&#45;&gt;icmp6_output -->
<g id="edge41" class="edge">
<title>icmp6_input&#45;&gt;icmp6_output</title>
<path fill="none" stroke="black" d="M840.65,-173.94C861.68,-160.36 893.76,-139.64 917.55,-124.27"/>
<polygon fill="black" stroke="black" points="919.72,-127.04 926.22,-118.67 915.92,-121.16 919.72,-127.04"/>
</g>
<!-- ndp_ns_input -->
<g id="node32" class="node">
<title>ndp_ns_input</title>
<ellipse fill="none" stroke="black" cx="1094.48" cy="-151" rx="39.15" ry="18"/>
<text text-anchor="middle" x="1094.48" y="-148.2" font-family="sans" font-size="11.00">ndp_ns_input</text>
</g>
<!-- icmp6_input&#45;&gt;ndp_ns_input -->
<g id="edge42" class="edge">
<title>icmp6_input&#45;&gt;ndp_ns_input</title>
<path fill="none" stroke="black" d="M852.55,-183.46C901.12,-176.92 991.06,-164.8 1046.25,-157.36"/>
<polygon fill="black" stroke="black" points="1047.02,-160.79 1056.47,-155.99 1046.09,-153.85 1047.02,-160.79"/>
</g>
<!-- ndp_na_input -->
<g id="node33" class="node">
<title>ndp_na_input</title>
<ellipse fill="none" stroke="black" cx="1094.48" cy="-297" rx="39.74" ry="18"/>
<text text-anchor="middle" x="1094.48" y="-294.2" font-family="sans" font-size="11.00">ndp_na_input</text>
</g>
<!-- icmp6_input&#45;&gt;ndp_na_input -->
<g id="edge43" class="edge">
<title>icmp6_input&#45;&gt;ndp_na_input</title>
<path fill="none" stroke="black" d="M838.96,-202.68C853.53,-212.82 874.02,-226.04 893.5,-235 944.74,-258.59 1007.36,-276.36 1048.72,-286.7"/>
<polygon fill="black" stroke="black" points="1047.95,-290.12 1058.5,-289.11 1049.63,-283.32 1047.95,-290.12"/>
</g>
<!-- ndp_rs_input -->
<g id="node34" class="node">
<title>ndp_rs_input</title>
<ellipse fill="none" stroke="black" cx="1094.48" cy="-243" rx="37.98" ry="18"/>
<text text-anchor="middle" x="1094.48" y="-240.2" font-family="sans" font-size="11.00">ndp_rs_input</text>
</g>
<!-- icmp6_input&#45;&gt;ndp_rs_input -->
<g id="edge44" class="edge">
<title>icmp6_input&#45;&gt;ndp_rs_input</title>
<path fill="none" stroke="black" d="M848.03,-198.03C861.71,-202.46 878.31,-207.46 893.5,-211 945.63,-223.14 1006.49,-232.16 1047.25,-237.48"/>
<polygon fill="black" stroke="black" points="1047.06,-240.98 1057.42,-238.78 1047.95,-234.04 1047.06,-240.98"/>
</g>
<!-- icmp6_output&#45;&gt;ip6_output -->
<g id="edge46" class="edge">
<title>icmp6_output&#45;&gt;ip6_output</title>
<path fill="none" stroke="black" d="M913.92,-112.12C878.44,-121.15 822.61,-137.62 778.26,-161 717.69,-192.93 705.49,-207.28 655.42,-254 630.62,-277.15 605.48,-306.89 588.95,-327.51"/>
<polygon fill="black" stroke="black" points="586.1,-325.46 582.63,-335.47 591.58,-329.82 586.1,-325.46"/>
</g>
<!-- ndp_ns_input&#45;&gt;control_output -->
<g id="edge61" class="edge">
<title>ndp_ns_input&#45;&gt;control_output</title>
<path fill="none" stroke="black" d="M1123,-163.36C1131.59,-168.39 1140.42,-174.93 1146.58,-183 1200.4,-253.39 1217.23,-360.91 1222.33,-411.64"/>
<polygon fill="black" stroke="black" points="1218.87,-412.21 1223.28,-421.85 1225.84,-411.57 1218.87,-412.21"/>
</g>
<!-- ndp_na_input&#45;&gt;control_output -->
<g id="edge59" class="edge">
<title>ndp_na_input&#45;&gt;control_output</title>
<path fill="none" stroke="black" d="M1124.14,-308.99C1131.93,-313.06 1140.02,-318.09 1146.58,-324 1175.04,-349.61 1198.01,-387.74 1211.44,-413.21"/>
<polygon fill="black" stroke="black" points="1208.43,-415.01 1216.11,-422.3 1214.66,-411.81 1208.43,-415.01"/>
</g>
<!-- ndp_rs_input&#45;&gt;control_output -->
<g id="edge63" class="edge">
<title>ndp_rs_input&#45;&gt;control_output</title>
<path fill="none" stroke="black" d="M1124.52,-254.19C1132.4,-258.27 1140.45,-263.51 1146.58,-270 1185.55,-311.23 1207.6,-375.39 1217.68,-411.96"/>
<polygon fill="black" stroke="black" points="1214.38,-413.16 1220.32,-421.93 1221.14,-411.37 1214.38,-413.16"/>
</g>
<!-- ip6_forward&#45;&gt;ip6_output -->
<g id="edge48" class="edge">
<title>ip6_forward&#45;&gt;ip6_output</title>
<path fill="none" stroke="black" d="M465.49,-384.68C484.89,-378.49 510.52,-370.32 531.29,-363.69"/>
<polygon fill="black" stroke="black" points="532.58,-366.95 541.05,-360.58 530.46,-360.28 532.58,-366.95"/>
</g>
<!-- ip6_hold&#45;&gt;control_output -->
<g id="edge49" class="edge">
<title>ip6_hold&#45;&gt;control_output</title>
<path fill="none" stroke="black" d="M844.86,-463.4C910.72,-459.34 1085.14,-448.59 1172.73,-443.19"/>
<polygon fill="black" stroke="black" points="1173.21,-446.67 1182.97,-442.56 1172.78,-439.68 1173.21,-446.67"/>
</g>
<!-- ip6_input_local&#45;&gt;l4_input_local -->
<g id="edge54" class="edge">
<title>ip6_input_local&#45;&gt;l4_input_local</title>
<path fill="none" stroke="black" d="M714.9,-297.73C735.27,-320.35 771.72,-360.84 795.08,-386.79"/>
<polygon fill="black" stroke="black" points="792.58,-389.24 801.87,-394.34 797.78,-384.56 792.58,-389.24"/>
</g>
<!-- ip6_input_local&#45;&gt;icmp6_input -->
<g id="edge53" class="edge">
<title>ip6_input_local&#45;&gt;icmp6_input</title>
<path fill="none" stroke="black" d="M721.11,-265.21C727.91,-260.09 735.44,-254.36 742.26,-249 758.54,-236.21 776.51,-221.54 790.74,-209.79"/>
<polygon fill="black" stroke="black" points="793.17,-212.32 798.64,-203.24 788.71,-206.93 793.17,-212.32"/>
</g>
<!-- l4_loopback_output&#45;&gt;loopback_output -->
<g id="edge67" class="edge">
<title>l4_loopback_output&#45;&gt;loopback_output</title>
<path fill="none" stroke="black" d="M1006.46,-415.39C1015.87,-415.46 1025.67,-415.52 1035.16,-415.59"/>
<polygon fill="black" stroke="black" points="1035.27,-419.09 1045.29,-415.66 1035.32,-412.09 1035.27,-419.09"/>
</g>
</g>
</svg>
